<svg width="129" height="139" viewBox="0 0 129 139" fill="none" xmlns="http://www.w3.org/2000/svg">
<g clip-path="url(#clip0_53_2574)">
<path d="M89.4493 73.6158C88.3796 68.6515 86.0782 64.1903 83.5968 59.813C81.7772 56.6005 79.9424 53.4061 76.92 51.0862C76.4117 50.6465 76.0028 50.1043 75.7205 49.4954C75.4382 48.8864 75.2888 48.2247 75.2822 47.5539C75.9969 48.6878 76.8886 49.7007 77.9236 50.5545C78.9157 51.2724 79.8389 51.6198 80.9833 50.7606C81.4174 50.4401 81.7304 49.9831 81.8717 49.4634C82.013 48.9437 81.9742 48.3917 81.7619 47.8966C81.3924 46.7783 80.8628 45.7191 80.1894 44.7519C78.8027 42.3776 79.3802 40.6677 81.9574 39.6662C82.6459 39.4018 83.3603 39.1889 84.1197 38.933C83.7037 38.1774 83.1179 37.528 82.4081 37.0358C81.6984 36.5435 80.8839 36.2218 80.0286 36.0957C78.7242 35.8313 78.9503 37.4046 78.1065 37.7187C78.6352 32.1586 77.5194 29.2631 74.3093 28C74.3428 28.8812 74.9423 29.7251 74.4299 30.7352C72.4983 28.3045 70.1137 28.2644 67.5673 29.1943C66.2352 29.7344 64.9626 30.4104 63.77 31.2115C61.6784 32.5118 59.5064 33.5028 56.8451 32.6655C57.3996 35.1142 58.7869 37.2962 60.7715 38.8414C62.0289 39.8028 63.3141 40.4835 64.5936 38.8261C64.7296 38.6476 65.0103 38.5769 65.2238 38.4566C62.8132 41.4191 61.1707 44.9272 60.4411 48.6718C59.404 54.0133 59.5419 59.477 58.6215 64.8404C58.039 69.0969 57.0709 73.292 55.7293 77.3744C54.74 80.0667 53.4923 82.7274 50.6537 84.0277C47.4934 85.4721 44.4373 84.7151 41.4886 83.2725C39.6901 82.398 37.9453 81.4271 36.1496 80.5402C35.3835 80.1583 34.8203 80.0199 35.0531 81.3192C35.6722 85.3276 37.1142 89.1656 39.2888 92.5931C41.3355 95.6441 43.9652 98.263 47.0277 100.3C50.0901 102.338 53.5253 103.754 57.1368 104.467C60.7484 105.181 64.4655 105.178 68.0759 104.458C71.6863 103.739 75.1192 102.318 78.1783 100.276C87.2064 94.1884 91.6338 83.7747 89.4493 73.6158ZM73.3229 36.9759C73.1956 36.9942 73.0657 36.9845 72.9425 36.9475C72.8193 36.9105 72.7057 36.847 72.6097 36.7616C72.5137 36.6762 72.4376 36.5709 72.3868 36.453C72.3359 36.3352 72.3116 36.2077 72.3155 36.0795C72.2964 35.9526 72.3043 35.8232 72.3386 35.6996C72.373 35.576 72.433 35.4609 72.5148 35.3619C72.5966 35.2629 72.6983 35.1821 72.8135 35.1248C72.9286 35.0675 73.0545 35.035 73.183 35.0293C73.4368 34.9872 73.6973 35.039 73.9154 35.1751C74.1335 35.3113 74.294 35.5222 74.3668 35.7683C74.3706 36.6284 73.9473 36.9387 73.3229 36.9759Z" fill="white"/>
<path d="M109 74.2775C107.986 93.3732 99.4957 107.636 82.1002 116.076C76.2441 118.881 69.7972 120.217 63.3131 119.971C48.5532 119.547 36.633 113.344 27.8999 101.401C20.1854 90.8535 17.5909 78.9824 19.7099 66.067C19.8522 65.1971 20.1558 65.0228 20.9557 65.0132C24.5466 64.9576 24.3919 64.9174 23.9462 68.4545C22.4351 80.4128 25.2301 91.2741 32.9303 100.588C41.7264 111.227 53.1969 116.338 66.9346 115.342C79.9869 114.392 90.2825 108.099 97.5245 97.1651C100.523 92.7542 102.611 87.7854 103.665 82.5517C104.72 77.318 104.72 71.9253 103.665 66.6917C103.397 65.2546 103.766 64.9672 105.139 65.0074C108.199 65.1032 108.203 65.0295 108.55 68.1249C108.637 68.8914 108.724 69.6578 108.778 70.4242C108.864 71.7099 108.928 72.9927 109 74.2775Z" fill="white"/>
<path d="M32.6181 24.8321C31.1723 23.0425 29.6395 21.3205 28.2367 19.5043C27.7025 18.8135 27.3365 18.8906 26.8032 19.3844C26.4814 19.7145 26.1269 20.0116 25.7453 20.2711C24.9283 20.7592 24.8786 21.1673 25.5762 21.8885C26.9666 23.3156 28.2864 24.8197 29.5602 26.36C29.7751 26.584 29.9414 26.8495 30.0488 27.1402C30.1561 27.4309 30.2023 27.7405 30.1844 28.0497C30.1665 28.3589 30.0849 28.6611 29.9446 28.9375C29.8043 29.214 29.6084 29.4587 29.369 29.6566C29.125 29.8642 28.8421 30.0216 28.5366 30.1197C28.2311 30.2178 27.909 30.2547 27.5891 30.2281C27.2692 30.2016 26.9578 30.1122 26.6728 29.9651C26.3878 29.818 26.135 29.6161 25.9288 29.3712C24.8471 28.2105 23.7711 27.0469 22.7256 25.8567C20.9683 23.8493 21.0055 23.8645 19.0943 25.5713C18.5142 26.0898 18.6164 26.3752 19.0761 26.8823C20.3585 28.2761 21.5884 29.7156 22.8192 31.1522C23.9726 32.4965 23.9852 33.8475 22.89 34.7894C21.7222 35.7959 20.5554 35.6304 19.2978 34.2338C18.2342 33.055 17.2193 31.8362 16.1529 30.6631C15.956 30.4424 15.8146 29.8773 15.3511 30.2208C14.6094 30.6688 13.9572 31.2494 13.4274 31.9333C13.1589 32.3785 13.9549 32.9189 14.2788 33.4098C14.7261 34.0948 15.1819 34.776 15.6913 35.4144C15.8715 35.5975 15.9818 35.8376 16.0033 36.0931C16.0248 36.3486 15.956 36.6035 15.8088 36.8139C14.4354 39.2662 12.8629 41.6027 11.1072 43.8C11.028 43.9295 10.9222 44.0407 10.7966 44.1265C10.6711 44.2122 10.5287 44.2705 10.3789 44.2975C10.2291 44.3245 10.0753 44.3195 9.92757 44.283C9.77982 44.2464 9.64155 44.1791 9.52185 44.0854C8.45767 43.4755 7.36014 42.925 6.23446 42.4366C6.02299 42.3098 5.78684 42.2294 5.54166 42.2008C5.29647 42.1722 5.04789 42.196 4.8127 42.2707C4.5775 42.3453 4.36105 42.4691 4.17776 42.6338C3.99446 42.7984 3.84859 43.0001 3.74987 43.2254C2.58147 45.4941 1.42327 47.7689 0.275257 50.0497C0.135643 50.2677 0.0463681 50.5138 0.0138381 50.7704C-0.0186918 51.0269 0.00629017 51.2874 0.087096 51.5331C0.167902 51.7788 0.302538 52.0036 0.481149 52.1913C0.659759 52.379 0.87797 52.5249 1.12006 52.6184C2.19608 53.2045 3.3122 53.723 4.42168 54.2453C5.32569 54.6754 5.69837 55.132 5.26356 56.2623C4.40659 58.0831 3.90027 60.0477 3.77087 62.0543C3.68919 62.5027 3.75025 62.9654 3.94538 63.3776C4.14051 63.7898 4.46001 64.1312 4.85936 64.3539C6.20676 65.2802 7.68024 66.01 9.23512 66.5211C11.7321 67.3717 11.8096 67.2823 11.7484 64.6488C11.7406 64.3989 11.6656 64.1556 11.5311 63.9444C11.3966 63.7332 11.2076 63.5618 10.9839 63.4481C10.2748 62.942 9.5897 62.4016 8.85961 61.9316C7.93744 61.3361 7.85711 60.6729 8.16004 59.6074C10.2442 52.2817 14.3267 46.0976 19.0379 40.2541C19.2911 39.9373 19.5156 39.5882 20.0116 39.6158C23.6525 39.8156 25.7587 37.713 27.2916 34.7779C27.4425 34.4925 27.5381 34.2319 27.9175 34.2166C29.6013 34.1519 30.6553 32.9579 31.8479 32.0189C34.4156 29.9858 34.7024 27.4075 32.6181 24.8321ZM6.49063 51.2703C5.94608 51.2571 5.42871 51.0304 5.05113 50.6395C4.67356 50.2487 4.46632 49.7252 4.47429 49.1829C4.47174 48.6439 4.68374 48.1259 5.06397 47.7422C5.44419 47.3584 5.96161 47.1403 6.50299 47.1356C7.04457 47.1477 7.56017 47.3691 7.94062 47.753C8.32107 48.1369 8.53655 48.6532 8.54138 49.1925C8.52144 49.7311 8.29997 50.2428 7.92056 50.6272C7.54114 51.0117 7.03118 51.241 6.49063 51.2703Z" fill="white"/>
<path d="M98.2007 74.26C98.311 71.6788 98.054 69.0951 97.4371 66.5844C97.3054 66.0679 96.7957 65.2544 97.7942 65.1536C98.5836 65.0744 99.7777 64.5682 100.05 65.9708C100.431 67.6467 100.707 69.3445 100.875 71.0542C101.548 79.3453 99.4962 87.6298 95.0229 94.6777C87.2364 106.94 72.3039 113.796 58.092 111.591C50.674 110.447 43.7676 107.152 38.2498 102.125C32.7321 97.0972 28.852 90.5638 27.1025 83.3542C25.7075 77.7301 25.6354 71.8652 26.8915 66.2093C27.2266 64.6879 28.2222 65.0404 29.087 65.1281C30.2268 65.244 29.6598 66.1018 29.5386 66.6551C27.8043 74.1212 28.6255 81.9443 31.8735 88.9005C35.1067 96.0899 40.7467 101.962 47.8465 105.53C52.5842 108.001 57.8572 109.304 63.2153 109.328C70.2447 109.424 77.1258 107.329 82.8797 103.34C86.7213 100.747 90.0066 97.4303 92.5474 93.5806C95.0883 89.7309 96.8346 85.4238 97.6862 80.9063C98.1166 78.7179 98.2892 76.4876 98.2007 74.26Z" fill="white"/>
<path d="M62.9931 18.6111C62.667 13.5824 62.4592 8.55366 62.1024 3.52685C62.0331 2.54011 61.5794 1.6194 60.838 0.96121C60.0965 0.303016 59.1261 -0.0405694 58.1338 0.00382344C57.1066 0.00382344 56.0793 0.19544 55.0482 0.266321C52.2002 0.464597 50.8161 2.05559 51.0017 4.92341C51.2191 8.30782 51.4218 11.6961 51.6097 15.0882C51.6309 15.4895 51.7058 16.0738 51.4884 16.2692C50.1519 17.2611 48.5279 17.7936 46.8611 17.7864C45.7319 17.8879 46.0358 16.5594 45.6203 15.9253C45.2956 15.2853 45.0397 14.613 44.8566 13.9195C44.2151 12.204 43.5225 11.8487 41.772 12.4828C39.5934 13.2711 37.4437 14.1303 35.2795 14.9646C35.0245 15.0171 34.786 15.1306 34.5849 15.2955C34.3838 15.4603 34.226 15.6714 34.1251 15.9105C34.0243 16.1497 33.9834 16.4097 34.0061 16.6681C34.0287 16.9265 34.1142 17.1756 34.2551 17.3937C35.0804 19.3774 35.8133 21.4014 36.5578 23.4196C37.2975 25.4157 37.8332 25.6542 39.7944 24.8937C40.9803 24.433 42.2951 23.5584 43.3532 23.7845C44.0264 23.9262 44.3429 25.7471 44.8152 26.8161C44.8989 27.0076 44.9364 27.2117 45.0201 27.3975C45.08 27.5707 45.192 27.7215 45.3408 27.8293C45.4897 27.9371 45.6681 27.9966 45.852 28C47.046 27.9233 48.1866 27.4795 49.1166 26.7299C49.8639 26.0872 49.206 25.1197 48.8559 24.319C48.6289 23.8055 48.5395 23.2309 48.2942 22.7309C47.9162 21.9464 48.2942 21.5163 48.9675 21.3592C50.8142 20.9301 52.4955 19.8544 54.4788 19.9588C55.3762 20.0048 55.5494 19.523 55.5282 18.7136C55.4724 16.6552 55.509 14.5948 55.509 12.5383H55.3762C55.3762 12.0747 55.3848 11.614 55.3762 11.1504C55.3358 9.40135 55.2676 7.65234 55.2579 5.9033C55.2269 5.68377 55.2415 5.46018 55.3007 5.24647C55.3599 5.03276 55.4624 4.83344 55.6021 4.66079C55.7417 4.48814 55.9155 4.3459 56.1126 4.24278C56.3097 4.13967 56.5258 4.07789 56.7478 4.06131C57.8395 3.9502 58.281 4.73851 58.5262 5.63794C58.5983 5.9908 58.6283 6.35087 58.6157 6.71073C58.7061 10.2088 58.793 13.7063 58.8764 17.2031C58.9379 19.8765 58.9322 19.842 61.6388 19.8573C62.5718 19.8592 63.0652 19.7155 62.9931 18.6111ZM40.3792 20.6226C39.8395 20.576 39.3317 20.3477 38.9397 19.9753C38.5477 19.6028 38.2948 19.1085 38.2227 18.5738C38.2856 18.0375 38.5442 17.5429 38.9491 17.1839C39.3541 16.8249 39.8774 16.6265 40.4196 16.6264C40.7024 16.6222 40.9831 16.6742 41.2455 16.7792C41.5079 16.8843 41.7466 17.0404 41.9477 17.2384C42.1489 17.4363 42.3082 17.6722 42.4168 17.9322C42.5253 18.1923 42.5808 18.4713 42.5799 18.7529C42.57 19.0237 42.5038 19.2895 42.3854 19.5335C42.2671 19.7776 42.0993 19.9945 41.8924 20.1706C41.6856 20.3466 41.4443 20.4781 41.1838 20.5566C40.9234 20.6351 40.6494 20.6588 40.3792 20.6264V20.6226Z" fill="white"/>
<path d="M70.0535 15.9456C70.3352 13.9667 70.7956 11.0064 71.1551 8.03466C71.2627 7.14041 71.6433 6.89788 72.4526 7.03619C72.8548 7.12839 73.2647 7.18451 73.6771 7.20386C74.8882 7.18492 75.2351 7.80731 74.9266 8.8465C74.4117 11.1732 74.0222 13.5252 73.7598 15.8925C73.6682 16.1439 73.6352 16.4123 73.6631 16.6779C73.6911 16.9435 73.7793 17.1995 73.9212 17.4269C74.0632 17.6544 74.2553 17.8474 74.4832 17.9918C74.7112 18.1361 74.9692 18.2281 75.2381 18.2608C76.1217 18.5472 77.0399 18.7173 77.9687 18.7667C80.0256 18.7316 81.0223 18.2874 81.2289 16.3871C81.4413 14.4328 82.0738 12.5201 82.1631 10.5346C82.1939 9.86389 82.4256 9.58729 83.108 9.79381C83.2076 9.82129 83.3087 9.84343 83.4108 9.86012C86.1779 10.3755 86.1779 10.3754 85.8598 13.1425C85.4551 16.6608 85.4426 16.6864 88.7432 18.2154C92.2877 19.9597 95.7177 21.9213 99.0132 24.0887C99.7469 24.5756 100.624 24.8087 101.506 24.7517C103.164 24.6286 103.674 23.4729 102.683 22.0927C101.376 20.5192 99.7916 19.192 98.005 18.1756C97.7493 18.0041 97.4802 17.8526 97.2139 17.7019C94.663 16.2213 94.6812 16.2364 96.5353 14.0264C96.9092 13.5802 97.1793 13.4438 97.6618 13.7952C100.144 15.6036 102.852 17.1174 105.086 19.2517C107.553 21.6077 107.63 23.5837 105.347 26.1111C104.32 27.2479 103.261 28.3591 102.241 29.5035C101.648 30.1666 101.203 30.1523 100.495 29.5394C96.7403 26.1998 92.5541 23.3637 88.0455 21.1046C87.4025 20.792 86.744 20.5097 86.0847 20.2284C84.8467 19.6998 83.6366 18.9789 82.9648 21.0298C82.7834 21.4031 82.4963 21.7167 82.1382 21.9329C81.7801 22.149 81.3661 22.2585 80.9463 22.248C78.3209 22.4742 75.6756 22.2626 73.1216 21.6219C70.7408 20.9152 69.7489 19.4393 70.0535 15.9456Z" fill="white"/>
<path d="M128.992 61.755C128.992 62.2167 129.01 62.6783 128.992 63.1391C128.856 66.3241 127.34 68.0783 124.205 68.6783C120.182 69.4491 119.539 69.0398 118.942 65.1632C118.404 61.3116 117.459 57.5253 116.123 53.8654C115.685 52.7159 116.5 52.2256 117.271 51.8765C117.992 51.5503 118.852 51.2784 119.395 52.3534C120.659 55.2114 121.639 58.1822 122.322 61.2247C122.419 61.5681 122.467 61.9257 122.564 62.2739C122.736 62.8815 122.668 63.7047 123.634 63.7047C124.551 63.7047 125.011 63.1277 125.307 62.3378C125.624 61.4641 125.619 60.5088 125.292 59.6383C124.381 56.9216 123.542 54.1792 122.544 51.494C122.034 50.1261 122.676 49.6721 123.784 49.2123C125.015 48.702 125.569 49.136 126.02 50.253C127.519 53.9608 129.061 57.6561 128.992 61.755Z" fill="white"/>
<path d="M122.651 41.4077C121.316 39.2044 119.987 37.0001 118.665 34.7949C118.529 34.5439 118.327 34.3367 118.082 34.1965C117.836 34.0563 117.558 33.9888 117.277 34.0015C116.764 34.0103 116.269 34.2002 115.877 34.5391C114.23 35.5581 112.594 36.5984 110.947 37.6271C108.865 38.9241 108.764 39.393 110.093 41.5676C111.945 44.5926 111.978 44.6459 109.039 46.4931C107.9 47.2089 107.692 47.9082 108.442 48.9834C108.736 49.4057 109.012 49.8397 109.269 50.2805C109.342 50.4492 109.452 50.5985 109.591 50.7171C109.73 50.8356 109.893 50.9203 110.068 50.9646C110.244 51.0089 110.427 51.0117 110.604 50.9727C110.781 50.9337 110.946 50.854 111.088 50.7396C114.809 48.4078 118.517 46.0575 122.212 43.6889C122.407 43.5866 122.577 43.4406 122.709 43.2619C122.84 43.0831 122.931 42.8762 122.973 42.6567C123.015 42.4372 123.008 42.2108 122.952 41.9945C122.896 41.7782 122.793 41.5775 122.651 41.4077ZM116.056 42.8984C115.54 42.8803 115.051 42.6577 114.694 42.2779C114.337 41.898 114.138 41.391 114.141 40.8643C114.111 40.5816 114.138 40.2955 114.223 40.0243C114.307 39.7532 114.446 39.503 114.63 39.2899C114.815 39.0768 115.041 38.9055 115.294 38.7869C115.548 38.6684 115.823 38.6053 116.101 38.6016C116.368 38.6024 116.631 38.6568 116.877 38.7618C117.123 38.8667 117.346 39.0201 117.533 39.2133C117.72 39.4064 117.869 39.6354 117.969 39.8872C118.07 40.1389 118.121 40.4084 118.119 40.6803C118.13 40.9653 118.086 41.2497 117.987 41.5167C117.889 41.7838 117.739 42.0279 117.547 42.2348C117.355 42.4416 117.123 42.607 116.867 42.721C116.611 42.835 116.335 42.8953 116.056 42.8984Z" fill="white"/>
<path d="M124.943 94.265C124.528 93.2063 123.397 93.9822 122.618 93.787C122.414 93.7464 122.204 93.7483 122.001 93.7927C121.553 93.8944 121.083 93.8396 120.672 93.6379C120.262 93.4362 119.937 93.1003 119.754 92.6888C119.461 92.1603 119.022 91.7223 118.488 91.4243C117.953 91.1262 117.344 90.98 116.728 91.0022C116.113 91.0244 115.516 91.214 115.006 91.5497C114.495 91.8854 114.091 92.3537 113.838 92.9018C113.119 94.2339 112.695 95.7149 112.112 97.1177C111.792 97.8869 112.196 98.2555 112.838 98.5138C115.618 99.6331 118.401 100.747 121.184 101.857C121.562 102.008 121.888 102.146 122.254 101.678C123.344 100.276 123.123 99.1077 121.549 98.3224C121.291 98.1942 120.942 98.1584 120.805 97.6503C121.481 97.4834 122.08 97.31 122.684 97.1884C123.803 96.9659 125.314 95.2143 124.943 94.265ZM116.946 97.145C116.736 97.1618 116.525 97.1311 116.329 97.0552C116.133 96.9793 115.958 96.8603 115.817 96.7074C115.676 96.5546 115.573 96.372 115.517 96.174C115.46 95.976 115.451 95.7679 115.49 95.5659C115.531 94.6685 115.979 94.0208 117.061 94.1057C118.118 94.1905 118.42 94.8749 118.454 95.7818C118.464 95.973 118.431 96.164 118.357 96.3414C118.283 96.5188 118.171 96.6781 118.027 96.8083C117.883 96.9384 117.712 97.0361 117.525 97.0944C117.338 97.1528 117.14 97.1704 116.946 97.146V97.145Z" fill="white"/>
<path d="M90.5104 120C89.7587 120.008 89.0163 120.171 88.3281 120.48C87.6399 120.789 87.0201 121.236 86.506 121.796C85.9919 122.356 85.5941 123.016 85.3367 123.737C85.0793 124.458 84.9675 125.225 85.0081 125.992C85.0292 129.402 87.3126 131.983 90.3269 132C91.0805 132.003 91.8271 131.853 92.5229 131.557C93.2186 131.262 93.8494 130.827 94.3779 130.279C94.9065 129.73 95.3222 129.08 95.6006 128.365C95.8789 127.65 96.0143 126.885 95.9988 126.116C95.9695 122.77 93.4898 120.003 90.5104 120ZM90.4031 129.415C89.5366 129.391 88.7144 129.019 88.1139 128.381C87.5134 127.743 87.1828 126.889 87.1934 126.005C87.2143 125.15 87.5467 124.334 88.1257 123.716C88.7047 123.098 89.4887 122.723 90.3242 122.664C91.1843 122.726 91.9912 123.112 92.5879 123.747C93.1846 124.383 93.5283 125.222 93.5522 126.102C93.548 126.962 93.2179 127.788 92.6311 128.405C92.0443 129.023 91.2462 129.385 90.404 129.415H90.4031Z" fill="white"/>
<path d="M15.7803 113.995C14.9869 113.944 14.2382 113.605 13.6706 113.042C13.1029 112.478 12.754 111.728 12.6874 110.926C12.6412 110.04 12.3515 109.764 11.523 109.532C10.9665 109.402 10.4534 109.127 10.0355 108.733C9.6176 108.339 9.30968 107.84 9.14251 107.288C8.97533 106.735 8.95482 106.148 9.08319 105.585C9.21155 105.022 9.48418 104.503 9.87367 104.08C11.3418 102.457 12.9714 100.988 14.5471 99.4694C15.0651 98.97 15.5719 98.7418 16.2097 99.4369C16.8778 100.166 16.6815 100.652 16.0578 101.228C14.7104 102.469 13.4026 103.753 12.0571 104.997C11.3023 105.695 10.8305 106.376 11.7108 107.324C12.5911 108.272 13.329 107.833 14.0537 107.143C15.3067 105.949 16.5428 104.738 17.7986 103.546C18.2223 103.144 18.6195 102.529 19.2941 103.247C19.9103 103.903 19.5008 104.336 19.029 104.785C17.7373 106.012 16.4663 107.261 15.1557 108.467C14.3141 109.242 13.7754 110.003 14.7548 111.051C15.6813 112.043 16.3389 111.402 17.0437 110.726C18.4025 109.423 19.8065 108.168 21.1549 106.854C21.5738 106.445 21.8833 106.328 22.2277 106.862C22.5164 107.312 23.4543 107.619 22.7334 108.335C20.9561 110.226 19.0458 111.984 17.0174 113.596C16.6709 113.885 16.228 114.028 15.7803 113.995Z" fill="white"/>
<path d="M106.259 36C105.466 35.1992 104.741 34.3354 104.091 33.4172C103.71 32.7885 104.62 32.5494 104.994 32.236C108.852 29.0057 112.765 25.8356 116.609 22.5931C117.504 21.8401 118.102 21.7046 118.758 22.7738C119.046 23.192 119.372 23.5827 119.734 23.9409C120.12 24.3654 120.088 24.6779 119.624 25.0591C115.377 28.536 111.14 32.0236 106.911 35.5218C106.724 35.6743 106.52 35.808 106.259 36Z" fill="white"/>
<path d="M26.8562 111.345C25.2455 110.555 23.947 111.221 22.9268 112.339C21.3064 114.107 19.8538 116.033 18.3051 117.874C17.5167 118.815 18.4554 119.146 18.8869 119.635C19.5008 120.34 19.8567 119.758 20.2388 119.316C21.6934 117.624 21.6244 117.705 23.2517 119.057C24.8284 120.37 23.4243 121.052 22.7737 121.797C22.0386 122.636 22.5573 123.044 23.08 123.599C23.6929 124.259 24.0721 124.035 24.557 123.429C25.9582 121.668 27.4478 119.982 28.8238 118.207C29.5438 117.308 29.9563 116.199 30 115.044C29.8187 114.213 29.4368 113.441 28.8883 112.796C28.3398 112.151 27.6417 111.652 26.8562 111.345ZM25.2726 117.868C24.8096 117.791 24.3831 117.567 24.0551 117.229C23.727 116.89 23.5145 116.455 23.4485 115.986C23.3515 115.27 24.7819 113.744 25.388 113.751C25.8246 113.903 26.2199 114.156 26.542 114.49C26.8642 114.824 27.1043 115.229 27.2432 115.674C27.2354 116.287 25.774 117.999 25.2736 117.869L25.2726 117.868Z" fill="white"/>
<path d="M11.9177 81.9807C11.6009 79.3718 10.1649 77.8872 7.74039 78.0067C5.48454 78.1169 3.25325 78.5355 1.00624 78.7624C-0.072645 78.8698 -0.0726114 79.4737 0.0597968 80.2359C0.214763 81.1499 0.708022 81.3741 1.61624 81.0759C2.14784 80.9027 2.90993 80.6248 3.24537 81.0962C3.79623 81.9573 3.96913 82.9876 3.72703 83.9672C3.56519 84.7767 2.705 84.4636 2.12927 84.5229C1.24655 84.6155 0.584495 84.7859 0.714941 85.8556C0.834599 86.8595 1.4015 87.0984 1.93603 86.9669C4.47337 86.6298 6.62232 86.4168 8.73987 86.0408C9.24451 86.0016 9.73447 85.8609 10.1768 85.6282C10.6192 85.3956 11.0037 85.0763 11.3047 84.6918C11.6056 84.3072 11.816 83.8664 11.9217 83.3988C12.0275 82.9312 12.0261 82.4477 11.9177 81.9807ZM7.04693 83.6662C5.74639 83.8755 5.68366 83.0327 5.5944 82.0316C5.45219 80.3998 6.65175 80.4507 7.74338 80.3822C9.22145 80.2896 9.03415 81.3565 9.12634 82.2289C9.28425 83.7107 8.17387 83.6246 7.04693 83.6662Z" fill="white"/>
<path d="M53.0736 136.144C53.2453 134.553 53.3247 132.953 53.3115 131.353C53.2915 130.735 53.4411 130.125 53.7428 129.593C54.0444 129.061 54.4856 128.63 55.0144 128.351C55.5432 128.071 56.1376 127.955 56.7276 128.016C57.3176 128.076 57.8787 128.311 58.3449 128.693C58.5955 128.928 58.9178 129.063 59.2548 129.074C59.5918 129.085 59.9216 128.971 60.1858 128.753C60.6623 128.427 61.2156 128.244 61.7851 128.224C62.3546 128.204 62.9185 128.348 63.415 128.639C63.9115 128.93 64.3217 129.358 64.6006 129.876C64.8796 130.394 65.0165 130.981 64.9966 131.575C65.0301 133.756 64.8056 135.941 64.7302 138.125C64.7006 138.987 64.198 139.012 63.5837 138.998C62.915 138.981 62.5158 138.736 62.5626 137.953C62.6734 136.09 62.7536 134.225 62.8673 132.362C62.9217 131.474 62.6944 130.702 61.8413 130.433C60.6883 130.069 60.0673 130.711 59.9909 131.879C59.8743 133.689 59.8439 135.505 59.7436 137.315C59.7063 137.998 59.7129 138.792 58.6879 138.668C57.6781 138.547 57.9992 137.708 58.0622 137.175C58.2781 135.364 58.1902 133.55 58.2532 131.738C58.2857 130.863 58.024 130.304 57.0735 130.245C56.1908 130.192 55.6195 130.4 55.437 131.449C55.1237 133.256 55.3415 135.075 55.1925 136.879C55.1333 137.591 55.4858 138.623 54.1713 138.553C52.9963 138.49 52.9293 137.71 53.0354 136.777C53.0475 136.564 53.0475 136.35 53.0354 136.137L53.0736 136.144Z" fill="white"/>
<path d="M106 121.491C105.994 122.42 105.725 123.327 105.227 124.097C104.729 124.866 104.024 125.464 103.202 125.816C102.48 126.069 101.698 126.061 100.981 125.794C100.264 125.526 99.654 125.015 99.2483 124.341C97.8705 122.486 96.6187 120.534 95.2531 118.665C94.5843 117.753 95.4107 117.488 95.7847 117.052C96.3071 116.444 96.7735 116.564 97.2315 117.235C98.391 118.934 99.6093 120.591 100.782 122.281C101.668 123.558 102.762 123.727 103.453 122.647C103.65 122.34 103.739 121.971 103.705 121.602C103.671 121.234 103.516 120.889 103.267 120.627C102.01 118.87 100.824 117.046 99.5039 115.339C98.6904 114.287 99.433 113.935 100.023 113.362C100.77 112.634 101.119 113.131 101.542 113.742C102.598 115.265 103.713 116.744 104.755 118.276C105.532 119.152 105.975 120.296 106 121.491Z" fill="white"/>
<path d="M81.9881 132.997C82.3953 132.834 82.7642 132.59 83.0724 132.283C83.3806 131.975 83.6215 131.608 83.7807 131.206C83.9398 130.804 84.0137 130.374 83.9979 129.943C83.9821 129.512 83.8769 129.089 83.6887 128.699C83.3778 127.781 82.7339 127.008 81.8794 126.526C81.025 126.043 80.0195 125.886 79.0543 126.083C77.2801 126.446 75.9653 128.099 76.0007 130.431C77.0299 133.296 78.307 136.07 79.8182 138.721C79.989 139.06 80.2738 139.026 80.6223 138.949C82.5291 138.514 82.8531 137.915 82.051 136.203C81.8546 135.78 81.6523 135.358 81.4176 134.951C80.9306 134.103 80.9042 133.534 81.9881 132.997ZM80.0244 131.329C79.8366 131.333 79.6497 131.3 79.4755 131.231C79.3013 131.162 79.1434 131.058 79.0116 130.927C78.8797 130.796 78.7767 130.639 78.7089 130.468C78.6411 130.296 78.6099 130.112 78.6174 129.928C78.5839 129.748 78.5927 129.563 78.643 129.387C78.6933 129.211 78.7839 129.048 78.9079 128.911C79.0318 128.774 79.1859 128.667 79.3584 128.597C79.5309 128.528 79.7174 128.497 79.9036 128.509C80.0895 128.488 80.2778 128.508 80.455 128.567C80.6322 128.626 80.7938 128.723 80.9281 128.85C81.0624 128.978 81.1659 129.134 81.2314 129.305C81.2969 129.477 81.3226 129.661 81.3067 129.844C81.3332 130.207 81.2132 130.566 80.9727 130.843C80.7321 131.121 80.3902 131.294 80.0205 131.327L80.0244 131.329Z" fill="white"/>
<path d="M47 125.314C46.9279 125.498 46.8596 125.682 46.7856 125.866C45.6892 128.57 44.6023 131.277 43.4872 133.972C43.2644 134.512 43.2185 135.287 42.1765 134.892C41.2402 134.544 41.2028 134.064 41.5763 133.306C41.8572 132.729 42.0201 132.096 42.3075 131.524C42.8169 130.512 42.5585 129.922 41.493 129.447C39.4876 128.555 39.5128 128.505 38.6468 130.559C38.4548 131.019 38.2179 131.454 38.0541 131.919C37.8247 132.563 37.4624 132.786 36.7957 132.471C36.2012 132.188 35.7818 131.934 36.1217 131.132C37.2967 128.354 38.4192 125.552 39.5315 122.748C39.8123 122.049 40.1869 121.82 40.9088 122.146C41.5641 122.441 41.875 122.817 41.5127 123.526C41.3338 123.878 41.2111 124.261 41.0567 124.623C40.2636 126.49 40.948 127.619 43.0228 127.904C43.6135 127.986 43.827 127.655 44.0106 127.214C44.3336 126.438 44.6827 125.673 44.9982 124.893C45.1761 124.452 45.4795 124.219 45.9271 124.421C46.3484 124.618 46.9494 124.658 47 125.314Z" fill="white"/>
<path d="M118 107.807C117.609 108.583 117.083 109.29 116.446 109.897C115.873 110.295 115.293 109.435 114.753 109.068C113.419 108.161 112.059 107.285 110.763 106.331C110.074 105.823 109.595 105.719 109.145 106.555C108.555 107.648 107.904 107.53 106.919 106.848C105.934 106.166 105.701 105.648 106.415 104.657C107.555 103.078 108.597 101.433 109.655 99.8014C110.06 99.1752 110.55 98.6049 111.213 99.3616C111.731 99.9537 113.551 99.9443 112.471 101.391C111.653 102.487 111.917 103.121 113.072 103.797C114.508 104.637 115.824 105.665 117.188 106.618C117.565 106.879 118.009 107.104 118 107.807Z" fill="white"/>
<path d="M37 119.887C36.8781 120.418 36.5647 120.892 36.1132 121.23C35.6616 121.568 35.0996 121.748 34.5229 121.74C34.3934 121.723 34.2616 121.73 34.1352 121.762C34.0087 121.793 33.8901 121.847 33.7861 121.922C33.6821 121.996 33.5949 122.09 33.5294 122.196C33.4638 122.303 33.4213 122.42 33.4043 122.542C33.2372 123.208 33.1254 123.891 32.898 124.538C32.7372 125.018 32.4685 125.461 32.11 125.836C31.7515 126.21 31.3116 126.508 30.8202 126.709C30.3288 126.91 29.7972 127.009 29.2616 126.999C28.7259 126.99 28.1988 126.872 27.7156 126.655C26.9246 126.282 26.0247 125.818 26.0004 124.907C25.9771 124.037 26.9576 123.561 27.4192 122.863C27.6135 122.573 27.8526 122.71 28.0654 122.883C29.1665 123.782 29.5552 123.18 29.8438 122.179C30.0083 121.361 30.2905 120.568 30.6825 119.822C30.9557 119.347 31.3422 118.94 31.8115 118.63C32.2809 118.321 32.8202 118.118 33.387 118.038C33.9538 117.959 34.5325 118.004 35.0775 118.17C35.6226 118.337 36.119 118.62 36.5278 118.999C36.6692 119.106 36.7845 119.242 36.866 119.395C36.9474 119.548 36.9931 119.716 37 119.887Z" fill="white"/>
<path d="M125.911 86.1517C125.845 87.2705 125.35 87.8169 124.087 87.2805C123.544 87.0502 122.949 86.9328 122.401 86.7098C121.585 86.3775 120.953 86.3034 120.427 87.2389C120.227 87.5546 119.921 87.7929 119.561 87.9133C119.202 88.0336 118.81 88.0286 118.454 87.899C117.592 87.6787 116.749 87.3897 115.89 87.1559C114.798 86.8588 114.922 86.1815 115.165 85.339C115.482 84.2419 116.15 84.6825 116.786 84.8794C117.259 85.0257 117.719 85.2153 118.195 85.3498C119.006 85.5783 119.845 85.6812 120.19 84.6997C120.551 83.6739 119.7 83.3452 118.966 83.0436C118.369 82.8094 117.753 82.6193 117.126 82.4747C116.166 82.239 116.214 81.662 116.442 80.9134C116.659 80.2027 116.905 79.7747 117.784 80.1241C118.608 80.4528 119.469 80.6975 120.323 80.9477C120.894 81.1156 121.445 81.4741 121.471 81.9798C121.589 84.2852 123.454 84.5209 125.096 85.05C125.613 85.218 126.233 85.3038 125.911 86.1517Z" fill="white"/>
<path d="M12.9729 89.0947C13.1433 89.8808 12.4758 89.9958 11.9089 90.1565C10.14 90.6605 8.37109 91.1682 6.58362 91.6228C5.42641 91.9177 4.80265 92.3953 5.39103 93.6735C5.64928 94.3089 5.84606 94.9668 5.97857 95.6383C6.10891 96.1761 6.16468 96.691 5.4199 96.9303C4.64532 97.1795 4.42654 96.7221 4.27106 96.1697C3.86237 94.7089 3.49287 93.2389 3.07393 91.7817C2.82536 90.9143 3.21911 90.529 4.02161 90.3054C6.60787 89.5832 9.19134 88.8445 11.7646 88.0831C12.7086 87.7991 12.932 88.2693 12.9729 89.0947Z" fill="white"/>
<path d="M104.306 109C104.598 109.232 104.917 109.472 105.218 109.734C106.739 111.064 108.296 112.36 109.757 113.748C110.511 114.463 111.023 114.628 111.665 113.675C112.1 113.07 112.595 112.505 113.144 111.987C113.496 111.637 113.792 111.039 114.52 111.63C114.656 111.7 114.771 111.801 114.855 111.923C114.938 112.046 114.988 112.185 114.998 112.33C115.008 112.475 114.979 112.619 114.914 112.751C114.849 112.882 114.749 112.996 114.624 113.083C113.516 114.243 112.408 115.406 111.365 116.614C110.906 117.145 110.606 117.093 110.127 116.671C107.893 114.7 105.637 112.751 103.389 110.793C103.059 110.505 102.816 110.18 103.186 109.798C103.483 109.484 103.705 109.057 104.306 109Z" fill="white"/>
<path d="M51.969 127.38L50.6966 131.744C50.2864 133.152 49.868 134.558 49.4699 135.97C49.2667 136.691 49.0634 137.234 48.0511 136.898C47.1963 136.615 46.7918 136.343 47.106 135.359C48.0158 132.518 48.8323 129.65 49.6899 126.795C49.8316 126.322 49.9434 125.78 50.6779 126.092C51.2782 126.345 52.1787 126.317 51.969 127.38Z" fill="white"/>
<path d="M16.9939 23.9388C17.0155 24.2086 16.9797 24.4799 16.8889 24.7346C16.7981 24.9893 16.6543 25.2215 16.4671 25.4156C16.28 25.6097 16.0539 25.7611 15.8039 25.8599C15.5539 25.9587 15.2858 26.0026 15.0177 25.9884C14.7443 26.0196 14.4675 25.9876 14.2082 25.895C13.9489 25.8024 13.7139 25.6516 13.5209 25.4539C13.328 25.2562 13.1821 25.0169 13.0945 24.7541C13.0069 24.4912 12.9797 24.2117 13.015 23.9367C12.9979 23.6754 13.037 23.4134 13.1297 23.1687C13.2224 22.924 13.3664 22.7024 13.552 22.5191C13.7376 22.3358 13.9603 22.1951 14.2049 22.1066C14.4494 22.0182 14.7101 21.9842 14.9689 22.0068C15.2304 21.9884 15.4927 22.0249 15.7394 22.1141C15.9862 22.2032 16.2118 22.343 16.4022 22.5247C16.5925 22.7063 16.7435 22.9257 16.8453 23.1691C16.9471 23.4126 16.9977 23.6747 16.9939 23.9388Z" fill="white"/>
<path d="M91 31.1574C91.0252 29.644 91.7838 29.0127 93.0193 29.0052C93.289 28.9847 93.5597 29.0247 93.8124 29.1225C94.0651 29.2202 94.2936 29.3732 94.4816 29.5708C94.6696 29.7683 94.8125 30.0055 94.9003 30.2655C94.988 30.5255 95.0184 30.8019 94.9893 31.0751C94.9963 31.3352 94.9498 31.5938 94.8528 31.8345C94.7558 32.0752 94.6104 32.2926 94.4259 32.4729C94.2415 32.6532 94.022 32.7923 93.7816 32.8814C93.5412 32.9705 93.2852 33.0075 93.0298 32.9902C92.7759 33.0167 92.5193 32.9893 92.2763 32.9096C92.0333 32.83 91.8094 32.6999 91.6185 32.5275C91.4276 32.3552 91.2741 32.1444 91.1676 31.9086C91.0612 31.6727 91.0041 31.4169 91 31.1574Z" fill="white"/>
<path d="M23 18.8379C22.8769 20.2239 22.2554 20.9916 20.9893 20.9926C20.7225 21.0169 20.4538 20.981 20.2021 20.8873C19.9504 20.7936 19.7219 20.6445 19.5328 20.4505C19.3438 20.2565 19.1987 20.0224 19.108 19.7647C19.0173 19.507 18.9831 19.2322 19.0078 18.9595C18.9973 18.701 19.0392 18.4431 19.1308 18.202C19.2223 17.9608 19.3615 17.7416 19.5398 17.558C19.7181 17.3744 19.9316 17.2305 20.1668 17.1352C20.4021 17.0399 20.6541 16.9953 20.907 17.0042C21.4209 16.9704 21.9274 17.1432 22.3184 17.4858C22.7094 17.8284 22.954 18.3136 23 18.8379Z" fill="white"/>
<path d="M78.991 3.00356C79.2592 2.98711 79.5279 3.02784 79.779 3.12304C80.0301 3.21824 80.2578 3.36571 80.4469 3.55556C80.6361 3.74541 80.7823 3.97329 80.8758 4.22389C80.9692 4.4745 81.0078 4.74206 80.9888 5.00868C81.0176 5.26324 80.9907 5.521 80.9101 5.76429C80.8295 6.00757 80.697 6.23065 80.5217 6.41832C80.3464 6.60599 80.1325 6.75383 79.8945 6.85168C79.6565 6.94953 79.4001 6.99507 79.1427 6.98527C78.8721 7.01906 78.5972 6.99457 78.337 6.91345C78.0767 6.83232 77.8369 6.69649 77.6341 6.51513C77.4312 6.33376 77.27 6.11113 77.1612 5.86232C77.0525 5.61351 76.9987 5.34429 77.0037 5.07303C76.939 3.83725 77.7199 3.13969 78.991 3.00356Z" fill="white"/>
<path d="M15.9921 18.0499C15.8527 19.238 15.1984 20.0756 13.9396 19.9946C13.6679 19.9989 13.3983 19.9458 13.149 19.8388C12.8997 19.7318 12.6763 19.5733 12.4939 19.3741C12.3115 19.1748 12.1741 18.9394 12.0911 18.6835C12.0081 18.4275 11.9814 18.157 12.0127 17.89C12.0057 17.6359 12.052 17.3831 12.1488 17.1476C12.2456 16.9121 12.3907 16.699 12.5749 16.5218C12.7592 16.3445 12.9787 16.207 13.2194 16.118C13.4602 16.0289 13.717 15.9901 13.9737 16.0042C14.2478 15.986 14.5227 16.0269 14.7793 16.124C15.036 16.2211 15.2682 16.372 15.4601 16.5665C15.6519 16.761 15.7989 16.9944 15.8908 17.2505C15.9826 17.5066 16.0172 17.7793 15.9921 18.0499Z" fill="white"/>
<path d="M10.9712 97.7295C11.0711 98.5376 10.9231 99.1806 10.3373 98.954C8.99762 98.4351 9.50352 96.9307 9.06563 95.9093C8.87867 95.4734 9.09953 94.8715 9.6214 95.0243C11.092 95.4539 10.4793 97.023 10.9712 97.7295Z" fill="white"/>
</g>
<defs>
<clipPath id="clip0_53_2574">
<rect width="129" height="139" fill="white"/>
</clipPath>
</defs>
</svg>
