<?xml version="1.0" encoding="utf-8"?>
<!-- Generator: Adobe Illustrator 23.0.2, SVG Export Plug-In . SVG Version: 6.00 Build 0)  -->
<svg version="1.1" id="Layer_1" xmlns="http://www.w3.org/2000/svg" xmlns:xlink="http://www.w3.org/1999/xlink" x="0px" y="0px"
	 viewBox="0 0 412.9 74.5" style="enable-background:new 0 0 412.9 74.5;" xml:space="preserve">
<style type="text/css">
	.st0{fill:#065C80;}
	.st1{fill:#6DCCDD;}
</style>
<g id="XMLID_133_">
	<polygon id="XMLID_733_" class="st0" points="142.7,68.6 142.7,21.9 126.3,21.9 126.3,7.6 175.3,7.6 175.3,21.9 158.9,21.9 
		158.9,68.6 	"/>
	<path id="XMLID_732_" class="st0" d="M277.2,16.7l-9.4,10l-1.1-1c0,0-2.5-2-3.1-2.5c-0.6-0.5-1.3-0.9-2.1-1.3
		c-0.7-0.4-1.5-0.7-2.3-1c-0.8-0.3-1.7-0.4-2.5-0.4c-0.9,0-1.7,0.1-2.5,0.2c-0.8,0.1-1.4,0.4-2,0.7c-0.6,0.3-1,0.7-1.4,1.3
		c-0.3,0.5-0.5,1.1-0.5,1.9c0,0.7,0.2,1.4,0.6,1.9c0.4,0.5,0.9,1,1.7,1.5s1.7,0.9,2.8,1.3c1.1,0.4,2.4,0.9,3.8,1.3
		c2.8,0.9,5.4,1.9,7.8,2.9c2.4,1,4.4,2.2,6.1,3.6c1.7,1.4,3.1,3.1,4,5c1,1.9,1.5,4.3,1.5,7c0,2.9-0.6,5.6-1.8,7.9
		c-1.2,2.4-2.8,4.4-4.9,6.1c-2.1,1.7-4.5,3-7.3,3.9c-2.8,0.9-5.8,1.4-9.1,1.4c-3,0-6-0.5-9-1.6c-2.9-1.1-5.7-2.5-8.2-4.4
		c-1.1-0.8-2-1.5-2.7-2.3c-0.7-0.7-3.7-3.9-3.7-3.9l9.7-9.2l0.9,0.8l0.9,0.8l1.7,1.5c0,0,1.5,1.2,2.4,1.8c1.4,0.9,2.7,1.6,4,2.1
		c1.3,0.5,2.7,0.8,4.2,0.8c1.4,0,2.5-0.2,3.4-0.5c0.9-0.3,1.6-0.7,2.2-1.2c0.5-0.5,0.9-1.1,1.1-1.7c0.2-0.7,0.3-1.4,0.3-2.1
		c0-0.8-0.3-1.6-0.9-2.2c-0.6-0.6-1.4-1.2-2.3-1.7c-0.9-0.5-1.8-0.9-2.8-1.3c-1-0.4-1.8-0.7-2.5-0.9c-3.2-1.1-6-2.3-8.3-3.6
		c-2.4-1.3-4.4-2.7-6-4.3c-1.6-1.6-2.8-3.3-3.6-5.2c-0.8-1.9-1.2-4-1.2-6.3c0-2.5,0.5-4.7,1.5-6.7c1-2,2.4-3.7,4.3-5.2
		c1.8-1.4,4.1-2.5,6.7-3.3c2.6-0.8,5.5-1.2,8.7-1.2c2.4,0,4.7,0.3,6.9,0.8c2.2,0.5,4.4,1.4,6.5,2.6C269.5,11,273.6,13.2,277.2,16.7"
		/>
	<polygon id="XMLID_731_" class="st0" points="91.1,54.2 118.3,54.2 118.3,68.6 75.2,68.6 75.2,7.6 118.3,7.6 118.3,21.9 91.1,21.9 
		91.1,31.8 110.8,31.8 110.8,44 91.1,44 	"/>
	<path id="XMLID_728_" class="st0" d="M192.3,7.6H206l23.7,61h-15.9c0,0-3.2-8.5-3.8-9.9h-21.8c-0.5,1.4-3.7,9.9-3.7,9.9h-15.8
		L192.3,7.6z M199.2,26.7c-0.5,1.4-5.8,17.4-6.3,18.8h12.6L199.2,26.7z"/>
	<path id="XMLID_725_" class="st0" d="M306.8,7.6h13.7l23.7,61h-15.9c0,0-3.2-8.5-3.8-9.9h-21.8c-0.5,1.4-3.7,9.9-3.7,9.9h-15.8
		L306.8,7.6z M313.7,26.7c-0.5,1.4-5.8,17.4-6.3,18.8h12.6L313.7,26.7z"/>
	<path id="XMLID_722_" class="st0" d="M402.2,30c-0.8-2.6-1.8-5.1-3.2-7.4c-1.4-2.3-3-4.4-4.9-6.2c-1.9-1.8-4.1-3.4-6.4-4.8
		c-2.3-1.3-4.8-2.4-7.5-3.2c-2.7-0.7-5.5-1.2-8.4-1.2H368V7.2h-16.2v61.4H368v-0.1h3.7c2.9,0,5.7-0.2,8.4-0.9
		c2.7-0.7,5.2-1.6,7.6-2.9c2.3-1.3,4.5-2.8,6.4-4.7c1.9-1.8,3.6-3.9,4.9-6.2c1.4-2.3,2.4-4.7,3.2-7.4c0.7-2.6,1.1-5.4,1.1-8.3
		C403.3,35.4,403,32.7,402.2,30 M386.3,44.4c-0.8,1.8-1.8,3.4-3.1,4.8c-1.3,1.4-2.9,2.5-4.7,3.3c-1.8,0.8-3.7,1.3-5.8,1.5
		c-0.6,0.1-1.6,0-2.2,0.1c-0.1,0-1.1,0-2.4,0V23.3h2.9c2.3,0,4.4-0.1,6.4,0.7c2,0.8,3.7,1.7,5.2,3.1c1.5,1.4,2.7,3,3.5,4.9
		c0.9,1.9,1.3,4,1.3,6.3C387.4,40.5,387,42.5,386.3,44.4"/>
	<path id="XMLID_721_" class="st0" d="M20.1,53.9h13.3c0.6,0,1.2,0,1.8-0.1c0.6,0,1.2-0.1,1.8-0.1c2.1-0.2,4-0.7,5.7-1.5
		c1.8-0.8,3.3-1.9,4.7-3.3c1.3-1.4,2.4-2.9,3.1-4.8c0.8-1.8,1.1-3.8,1.1-6c0-2.3-0.4-4.4-1.3-6.3c-0.9-1.9-2-3.6-3.5-5
		c-1.5-1.4-3.2-2.5-5.2-3.3c-2-0.8-4.1-1.2-6.3-1.2H20.1V7.6h16.1c2.9,0,5.6,0.4,8.3,1.1c2.7,0.7,5.2,1.7,7.5,3
		c2.3,1.3,4.4,2.9,6.3,4.7c1.9,1.8,3.5,3.9,4.9,6.2c1.4,2.3,2.4,4.7,3.2,7.3c0.8,2.6,1.1,5.4,1.1,8.2c0,2.9-0.4,5.7-1.1,8.3
		c-0.7,2.6-1.8,5-3.2,7.3c-1.4,2.3-3,4.3-4.9,6.1c-1.9,1.8-4,3.4-6.3,4.7c-2.3,1.3-4.8,2.3-7.5,3c-2.7,0.7-5.5,1-8.3,1H20.1V53.9z"
		/>
	<rect id="XMLID_720_" x="5.3" y="22.3" class="st1" width="14.7" height="14.7"/>
</g>
</svg>
