<?xml version="1.0" encoding="utf-8"?>
<!-- Generator: Adobe Illustrator 24.0.3, SVG Export Plug-In . SVG Version: 6.00 Build 0)  -->
<svg version="1.1" id="Layer_1" xmlns="http://www.w3.org/2000/svg" xmlns:xlink="http://www.w3.org/1999/xlink" x="0px" y="0px"
	 viewBox="0 0 841.9 287.3" style="enable-background:new 0 0 841.9 287.3;" xml:space="preserve">
<style type="text/css">
	.st0{fill:#FFFFFF;}
</style>
<g>
	<path class="st0" d="M177.7,150.7c-4.6,0-8.5,4.6-8.5,9.4c0,5.5,4.1,9.6,9.6,9.6c6.2,0,9.2-3.2,9.2-9.8
		C188,153.7,184.6,150.7,177.7,150.7z"/>
	<path class="st0" d="M293.1,83.4c-2.1,1.6-3.2,4.8-3.2,9.8c0,0.9,0,3.2,0.2,7.1v10.8h-12.8V81.4L263.8,88c-2.5,1.4-4.1,3.4-4.6,6.2
		c-0.2,1.4-0.2,7.1-0.2,16.9h-13.5v-21l-10.1,5c-5.3,2.7-8,4.6-8,5.7v10.3h-15.3h-4.6H199V77c-4.4,3-8.5,6.2-12.6,9.2
		c-2.7,2.1-4.6,4.6-5.3,7.3c-0.7,2.7-0.9,8.7-0.9,17.6h-30.9h-5.5h-7.3c0-11.7-0.2-19-0.7-21.5c-1.6-9.8-6.2-14.7-13.3-14.7
		c-0.7,0-4.1,0.2-10.5,0.7c-6.4,0.2-11.7,0.5-16,0.5c-15.1,0-22.4-2.3-22.2-6.6v-1.1c1.8-1.8,11-7.6,27.2-16.9
		c14-8,21.1-14.2,21.1-18.1C64.2,61.5,34.2,76.8,31.7,79.1c-1.6,1.6-2.3,4.6-2.3,9.2c0,0,0.2,1.8,0.9,5.5c2.3,0,9.4-0.2,21.1-0.7
		c11.9-0.5,21.5-0.7,28.8-0.7c25.6,0,38.5,2.5,38.5,7.6v10.8H13.4l-6.9,22h137.4h5.5h58.2h4.6h15.3h1.1h73.7c3.9,0,6.6-4.6,6.6-8.5
		V75C303.6,77.7,298.4,80.5,293.1,83.4z"/>
</g>
<g>
	<path class="st0" d="M704.7,7.3H459.4l-127,137.8l126.4,134l246.5,0.1l128.5-134L704.7,7.3z M697.5,260.7l-230.6-0.1L357.9,145
		L467.6,25.9h229.1l111.7,119.2L697.5,260.7z"/>
	<g>
		<path class="st0" d="M684.7,63.2V63H499.9V43.4H476v43.5h204.6c17.2,0,30.1,15.1,30.1,35.1c0,10.4-3.6,19.7-10.2,26.2
			c-5.7,5.7-13.2,8.6-21.7,8.6c-0.2,0-0.3,0-0.5,0l0,0H495.1v23.8h183.5l0,0c0.1,0,0.2,0,0.4,0c14.7,0,28.3-5.5,38.5-15.5
			c11.1-11,17.3-26.3,17.3-43.1C734.6,90.4,713,65.4,684.7,63.2z"/>
		<path class="st0" d="M454.9,167c0-10.4,3.6-19.7,10.2-26.2c5.8-5.8,13.4-8.7,22.1-8.6l0,0h183.4v-23.9H487.1l0,0
			c-14.7-0.1-28.6,5.4-38.8,15.5c-11.1,11-17.3,26.3-17.3,43.1c0,31.6,21.6,56.6,49.9,58.8v0.2h184.8v19.6h23.8V202H485
			C467.8,202.1,454.9,187,454.9,167z"/>
	</g>
</g>
<g>
	<path class="st0" d="M43.5,193.7l1.2-4.2h4.5c0,3.1,0,6.2,0.1,9.2s0.2,6,0.3,8.9h-4.3c-0.9-4.5-2.9-8.1-5.7-10.6
		c-2.9-2.5-6.3-3.8-10.4-3.8c-2.9,0-5.3,0.8-7,2.4c-1.8,1.6-2.6,3.7-2.6,6.3c0,3.6,3.5,7,10.6,10.2l0.4,0.2
		c9.4,4.3,15.6,8.1,18.5,11.4c2.9,3.3,4.4,7.3,4.4,12.2c0,6.2-2.1,11.2-6.3,14.9c-4.2,3.8-9.8,5.6-16.8,5.6c-3.8,0-7.1-0.5-9.8-1.5
		s-5.3-2.6-7.6-4.8l-1.2,4.7H7.2c0.1-1.6,0.2-3.1,0.2-4.7c0-1.5,0.1-3.1,0.1-4.7c0-2.1,0-4-0.1-5.9c0-1.8-0.1-3.6-0.2-5.2h4.4
		c1.3,5.7,3.4,10,6.2,12.9c2.9,2.9,6.5,4.4,10.8,4.4c3.6,0,6.5-0.9,8.6-2.8c2.1-1.9,3.2-4.4,3.2-7.6c0-2.5-0.8-4.6-2.3-6.3
		s-5.2-3.8-11-6.4c-7.1-3.2-12.1-6.4-14.8-9.6c-2.7-3.2-4.1-7.2-4.1-12.1c0-5.5,1.8-9.9,5.4-13.2c3.6-3.4,8.3-5,14.2-5
		c3.4,0,6.3,0.4,8.8,1.2C39.1,190.7,41.4,192,43.5,193.7z"/>
	<path class="st0" d="M88.1,188.9h4.7l21.8,54.7c1,2.7,2.3,4.7,3.8,5.8s3.5,1.8,6.1,2v4c-2.7-0.1-5.4-0.2-8.2-0.2
		c-2.8,0-5.6-0.1-8.5-0.1c-3,0-5.8,0-8.6,0.1c-2.8,0-5.4,0.1-8,0.2v-4c3.5-0.2,5.7-0.5,6.7-1s1.5-1.5,1.5-2.8c0-0.7-0.2-1.7-0.5-3
		s-0.8-2.7-1.4-4.3l-1.9-5.1H74l-1.7,3.8c-0.6,1.5-1.1,2.9-1.5,4.2s-0.5,2.4-0.5,3c0,1.8,0.7,3.1,2,4s3.3,1.3,6.1,1.3v4
		c-2-0.1-4-0.2-6-0.2s-3.9-0.1-5.9-0.1c-1.9,0-3.7,0-5.6,0.1c-1.9,0-3.8,0.1-5.7,0.2v-4c2.3-0.2,4.3-0.9,5.8-2.1
		c1.5-1.2,2.8-3,3.9-5.5L88.1,188.9z M85.2,207.7L76,230.2h17.7L85.2,207.7z"/>
	<path class="st0" d="M127.4,190.2c1.2,0.1,2.6,0.2,4.1,0.2s3.6,0.1,6.5,0.1c1.3,0,3.7,0,7.5-0.1c3.7-0.1,6.8-0.1,9.2-0.1
		c10.6,0,18.2,1.4,23,4.1c4.8,2.7,7.1,7.1,7.1,13.1c0,6.2-2.3,10.8-7,13.8s-11.9,4.5-21.8,4.5c-1.3,0-2.2,0-2.9,0s-1.3,0-1.8-0.1
		V243c0,3.3,0.6,5.5,2,6.6c1.3,1.2,3.7,1.7,7.3,1.7h0.5v4c-2.9-0.1-6.2-0.2-9.9-0.2s-7.8-0.1-12.3-0.1c-3.5,0-5.9,0-7.4,0.1
		c-1.5,0-2.7,0.1-3.8,0.2v-4c3.4-0.3,5.6-0.9,6.8-2c1.1-1.1,1.7-3,1.7-5.9v-41.5c0-3.1-0.5-5.1-1.6-6.1s-3.4-1.6-6.9-1.9v-3.7H127.4
		z M151.2,221c0.3,0,0.6,0.1,1,0.1s0.9,0,1.6,0c5.1,0,8.8-1.1,11-3.2c2.2-2.1,3.4-5.7,3.4-10.6c0-4-1-7.1-3-9.2
		c-2-2.1-5-3.2-8.9-3.2c-2,0-3.4,0.2-4.1,0.5c-0.7,0.4-1,1-1,2V221z"/>
	<path class="st0" d="M209.5,188.9h4.7l21.8,54.7c1,2.7,2.3,4.7,3.8,5.8s3.5,1.8,6.1,2v4c-2.7-0.1-5.5-0.2-8.2-0.2
		c-2.8,0-5.6-0.1-8.5-0.1c-3,0-5.8,0-8.6,0.1c-2.8,0-5.4,0.1-8,0.2v-4c3.5-0.2,5.7-0.5,6.7-1s1.5-1.5,1.5-2.8c0-0.7-0.2-1.7-0.5-3
		s-0.8-2.7-1.4-4.3l-1.9-5.1h-21.5l-1.7,3.8c-0.6,1.5-1.1,2.9-1.5,4.2s-0.5,2.4-0.5,3c0,1.8,0.6,3.1,2,4c1.3,0.9,3.3,1.3,6.1,1.3v4
		c-2-0.1-4-0.2-6-0.2s-3.9-0.1-5.9-0.1c-1.9,0-3.7,0-5.6,0.1c-1.9,0-3.8,0.1-5.7,0.2v-4c2.3-0.2,4.3-0.9,5.8-2.1
		c1.5-1.2,2.8-3,3.9-5.5L209.5,188.9z M206.6,207.7l-9.2,22.5h17.7L206.6,207.7z"/>
	<path class="st0" d="M301.2,195.1l1.7-5.2h4v2.6c0,3,0.1,6,0.2,9s0.4,5.9,0.6,8.8h-4c-1.5-5.3-3.8-9.3-7-12.1s-7-4.2-11.4-4.2
		c-6.1,0-10.9,2.6-14.4,7.8s-5.3,12.3-5.3,21.4c0,8.7,1.8,15.6,5.3,20.4c3.5,4.9,8.4,7.3,14.6,7.3c5.1,0,9.3-1.6,12.6-4.9
		c3.3-3.2,5.5-7.8,6.5-13.8h4.2v0.6c-0.1,5.3-0.1,9.1-0.1,11.5c0,1.4,0,2.8,0,4.4c0,1.5,0.1,3.6,0.1,6.2h-4l-2-5.8
		c-3.3,2.5-6.6,4.4-10,5.6c-3.3,1.2-6.9,1.8-10.7,1.8c-10,0-18.1-3-24.3-9c-6.2-6-9.3-13.9-9.3-23.7c0-4.6,0.7-8.8,2.1-12.8
		c1.4-4,3.4-7.5,6.1-10.4c3.4-3.8,7.4-6.7,11.8-8.8c4.5-2,9.2-3,14.3-3c3.3,0,6.5,0.5,9.5,1.5C295.2,191.4,298.2,193,301.2,195.1z"
		/>
</g>
</svg>
